<svg width="23" height="15" viewBox="0 0 23 15" fill="none" xmlns="http://www.w3.org/2000/svg">
<path d="M19.7922 0.477295H2.9849C1.55316 0.477295 0.388672 1.68127 0.388672 3.16143V5.64733V6.44347L1.1506 6.5562C1.59096 6.62148 1.92333 7.01756 1.92333 7.47727C1.92333 7.93699 1.59115 8.33306 1.15099 8.3983L0.388672 8.51102V9.30726V11.7936C0.388672 13.2733 1.55316 14.4773 2.9849 14.4773H19.7922C21.224 14.4773 22.3887 13.2733 22.3887 11.7936V9.3239V8.44743L21.5417 8.40647C21.0605 8.38339 20.6832 7.97516 20.6832 7.47732C20.6832 6.97988 21.0605 6.57164 21.542 6.54812L22.3887 6.50676V5.63069V3.16143C22.3887 1.68127 21.224 0.477295 19.7922 0.477295ZM21.5001 5.63069C20.5511 5.67733 19.795 6.48483 19.795 7.47732C19.795 8.47015 20.5511 9.27806 21.5001 9.3239V11.7936C21.5001 12.7686 20.7353 13.5591 19.7922 13.5591H2.9849C2.04158 13.5591 1.2769 12.7686 1.2769 11.7936V9.30726C2.14416 9.17874 2.81156 8.40971 2.81156 7.47727C2.81156 6.54523 2.14411 5.7762 1.2769 5.64733V3.16143C1.2769 2.18604 2.04158 1.39553 2.9849 1.39553H19.7922C20.7353 1.39553 21.5001 2.18604 21.5001 3.16143V5.63069Z" fill="black"/>
<path d="M6.07785 10.8604H5.49023V12.4451H6.07785V10.8604Z" fill="black"/>
<path d="M6.07785 8.0769H5.49023V9.66121H6.07785V8.0769Z" fill="black"/>
<path d="M6.07785 5.29309H5.49023V6.8778H6.07785V5.29309Z" fill="black"/>
<path d="M6.07785 2.50952H5.49023V4.09418H6.07785V2.50952Z" fill="black"/>
<path d="M9.78125 7.56702H15.267" stroke="black" stroke-linecap="round" stroke-linejoin="round"/>
<path d="M12.5244 10.4906V4.64343" stroke="black" stroke-linecap="round" stroke-linejoin="round"/>
</svg>
