<svg xmlns="http://www.w3.org/2000/svg" width="18" height="18" viewBox="0 0 18 18" fill="none">
  <path d="M7.47177 2.29535C7.96272 2.18395 8.47416 2.125 9.00014 2.125C12.7971 2.125 15.8751 5.20304 15.8751 9C15.8751 10.943 15.0695 12.698 13.7724 13.949V12.3333C13.7724 11.9882 13.4926 11.7083 13.1474 11.7083C12.8022 11.7083 12.5224 11.9882 12.5224 12.3333V15.25C12.5224 15.5952 12.8022 15.875 13.1474 15.875H16.0835C16.4286 15.875 16.7085 15.5952 16.7085 15.25C16.7085 14.9048 16.4286 14.625 16.0835 14.625H14.8631C16.2635 13.1656 17.1251 11.1835 17.1251 9C17.1251 4.51269 13.4875 0.875 9.00014 0.875C8.38046 0.875 7.77626 0.944485 7.19517 1.07634C6.85855 1.15272 6.64758 1.48753 6.72396 1.82415C6.80035 2.16077 7.13515 2.37174 7.47177 2.29535Z" fill="#B65FFC"/>
  <path d="M1.91667 2.13802C1.57149 2.13802 1.29167 2.41784 1.29167 2.76302C1.29167 3.1082 1.57149 3.38802 1.91667 3.38802H3.12465C1.73153 4.84619 0.875 6.82303 0.875 9.00006C0.875 13.4874 4.51269 17.1251 9 17.1251C9.61967 17.1251 10.2239 17.0556 10.805 16.9237C11.1416 16.8473 11.3526 16.5125 11.2762 16.1759C11.1998 15.8393 10.865 15.6283 10.5284 15.7047C10.0374 15.8161 9.52597 15.8751 9 15.8751C5.20304 15.8751 2.125 12.797 2.125 9.00006C2.125 7.06677 2.92264 5.31962 4.20833 4.06991V5.66673C4.20833 6.01191 4.48816 6.29173 4.83333 6.29173C5.17851 6.29173 5.45833 6.01191 5.45833 5.66673V2.76302C5.45833 2.41784 5.17851 2.13802 4.83333 2.13802H1.91667Z" fill="#B65FFC"/>
</svg>