<svg width="16" height="16" viewBox="0 0 16 16" fill="none" xmlns="http://www.w3.org/2000/svg">
<path d="M2.23324 1.33331H8.16658C8.65992 1.33331 9.06657 1.73998 9.06657 2.23332V3.21997C9.06657 3.57997 8.83991 4.02665 8.61991 4.25332L6.6866 5.95998C6.41994 6.18665 6.23991 6.63331 6.23991 6.99331V8.92666C6.23991 9.19332 6.05992 9.55332 5.83325 9.69332L5.20658 10.1C4.61992 10.46 3.81323 10.0533 3.81323 9.33331V6.95331C3.81323 6.63997 3.63325 6.23332 3.45325 6.00665L1.74658 4.20664C1.51991 3.97998 1.33992 3.57997 1.33992 3.30664V2.27332C1.33326 1.73998 1.7399 1.33331 2.23324 1.33331Z" stroke="#DEDEDE" stroke-width="1.5" stroke-miterlimit="10" stroke-linecap="round" stroke-linejoin="round"/>
<path d="M1.3335 8.00002V10C1.3335 13.3334 2.66683 14.6667 6.00016 14.6667H10.0002C13.3335 14.6667 14.6668 13.3334 14.6668 10V6.00002C14.6668 3.92002 14.1468 2.61335 12.9401 1.93335C12.6001 1.74002 11.9202 1.59335 11.3002 1.49335" stroke="#DEDEDE" stroke-width="1.5" stroke-linecap="round" stroke-linejoin="round"/>
<path d="M8.6665 8.66669H11.9998" stroke="#DEDEDE" stroke-width="1.5" stroke-linecap="round" stroke-linejoin="round"/>
<path d="M7.3335 11.3333H12.0002" stroke="#DEDEDE" stroke-width="1.5" stroke-linecap="round" stroke-linejoin="round"/>
</svg>
