<svg width="32" height="32" viewBox="0 0 32 32" fill="none" xmlns="http://www.w3.org/2000/svg">
<path d="M25.213 19.59C25.213 21.31 26.6263 22.71 28.3463 22.71C28.3463 27.71 27.093 28.9634 22.093 28.9634H9.58634C4.58634 28.9634 3.33301 27.71 3.33301 22.71V22.0967C5.05301 22.0967 6.46634 20.6834 6.46634 18.9634C6.46634 17.2434 5.05301 15.83 3.33301 15.83V15.2167C3.34634 10.2167 4.58634 8.96338 9.58634 8.96338H22.0797C27.0797 8.96338 28.333 10.2167 28.333 15.2167V16.47C26.613 16.47 25.213 17.8567 25.213 19.59Z" stroke="#DEDEDE" stroke-width="2" stroke-linecap="round" stroke-linejoin="round"/>
<path d="M21.6151 8.96329H9.49512L13.4018 5.05663C16.5885 1.86996 18.1885 1.86996 21.3751 5.05663L22.1751 5.85663C21.3351 6.69663 21.1351 7.93663 21.6151 8.96329Z" stroke="#DEDEDE" stroke-width="2" stroke-linecap="round" stroke-linejoin="round"/>
<path d="M13.1719 8.9635L13.1719 28.9635" stroke="#DEDEDE" stroke-width="2" stroke-linecap="round" stroke-linejoin="round" stroke-dasharray="6.67 6.67"/>
</svg>
