<svg width="28" height="28" viewBox="0 0 28 28" fill="none" xmlns="http://www.w3.org/2000/svg">
    <path
        d="M26.0413 11.6665C26.0413 11.8687 25.8685 12.0415 25.6663 12.0415C24.2702 12.0415 23.1247 13.187 23.1247 14.5832C23.1247 15.9793 24.2702 17.1248 25.6663 17.1248C25.8685 17.1248 26.0413 17.2976 26.0413 17.4998C26.0413 20.0551 25.6449 21.548 24.763 22.4298C23.8811 23.3117 22.3883 23.7082 19.833 23.7082H13.0413V21.5832C13.0413 20.8287 12.4208 20.2082 11.6663 20.2082C10.9119 20.2082 10.2913 20.8287 10.2913 21.5832V23.7082H8.16634C5.61106 23.7082 4.11822 23.3117 3.23635 22.4298C2.35449 21.548 1.95801 20.0551 1.95801 17.4998V16.9165C1.95801 16.7143 2.13082 16.5415 2.33301 16.5415C3.72915 16.5415 4.87467 15.396 4.87467 13.9998C4.87467 12.6037 3.72915 11.4582 2.33301 11.4582C2.13082 11.4582 1.95801 11.2854 1.95801 11.0832V10.4998C1.95801 7.94456 2.35449 6.45171 3.23635 5.56985C4.11822 4.68798 5.61106 4.2915 8.16634 4.2915H10.2913V6.4165C10.2913 7.17098 10.9119 7.7915 11.6663 7.7915C12.4208 7.7915 13.0413 7.17098 13.0413 6.4165V4.2915H19.833C22.3883 4.2915 23.8811 4.68798 24.763 5.56985C25.6449 6.45171 26.0413 7.94456 26.0413 10.4998V11.6665ZM11.6663 17.9065C12.4208 17.9065 13.0413 17.286 13.0413 16.5315V11.4682C13.0413 10.7137 12.4208 10.0932 11.6663 10.0932C10.9119 10.0932 10.2913 10.7137 10.2913 11.4682V16.5315C10.2913 17.286 10.9119 17.9065 11.6663 17.9065Z"
        fill="#FCC434" stroke="#FCC434" />
</svg>