<svg width="28" height="28" viewBox="0 0 28 28" fill="none" xmlns="http://www.w3.org/2000/svg">
<path d="M24.3995 7.71243L24.3995 7.71252L24.4094 7.71761C24.5761 7.803 24.811 7.96694 25.0059 8.26963C25.1991 8.56965 25.3753 9.04043 25.3753 9.77675V18.2234C25.3753 18.9597 25.1991 19.4305 25.0059 19.7305C24.811 20.0332 24.5761 20.1972 24.4094 20.2826L24.4094 20.2825L24.4036 20.2855C24.2421 20.3706 23.9971 20.4634 23.6837 20.4634C23.3168 20.4634 22.8028 20.3461 22.1663 19.8944L22.1656 19.8939L20.4506 18.6805L19.5689 18.0568L19.5307 19.1361C19.4689 20.8841 19.0615 21.9569 18.3426 22.6121C17.6154 23.2748 16.4455 23.6251 14.5837 23.6251H7.58366C5.69129 23.6251 4.47948 22.9701 3.7297 22.0704C2.96491 21.1526 2.62533 19.9125 2.62533 18.6667V9.33342C2.62533 7.39196 3.00698 6.20088 3.72905 5.47881C4.45112 4.75674 5.64221 4.37508 7.58366 4.37508H14.5837C16.4455 4.37508 17.6154 4.72541 18.3426 5.38811C19.0615 6.04326 19.4689 7.11604 19.5307 8.86403L19.5689 9.94341L20.4506 9.31962L22.1635 8.10778C22.1638 8.10754 22.1641 8.1073 22.1645 8.10706C22.7675 7.68467 23.2534 7.55715 23.6092 7.54206C23.968 7.52684 24.2353 7.62433 24.3995 7.71243ZM10.057 11.0834C10.057 12.6209 11.3118 13.8601 12.8337 13.8601C14.3555 13.8601 15.6103 12.6209 15.6103 11.0834C15.6103 9.5459 14.3555 8.30675 12.8337 8.30675C11.3118 8.30675 10.057 9.5459 10.057 11.0834Z" fill="#FCC434" stroke="#FCC434" stroke-width="1.16667"/>
</svg>
